<svg xmlns="http://www.w3.org/2000/svg" xmlns:xlink="http://www.w3.org/1999/xlink" aria-hidden="true" role="img" class="iconify iconify--ph" width="1em" height="1em" preserveAspectRatio="xMidYMid meet" viewBox="0 0 256 256"><path fill="currentColor" d="M128 220a4.9 4.9 0 0 1-2-.5a321.4 321.4 0 0 1-50.7-37C41.3 151.8 24 121.4 24 92a56 56 0 0 1 104-28.9A56 56 0 0 1 232 92c0 29.4-17.3 59.8-51.3 90.5a321.4 321.4 0 0 1-50.7 37a4.9 4.9 0 0 1-2 .5ZM80 44a48 48 0 0 0-48 48c0 59.7 82.2 111.1 96 119.4c13.8-8.3 96-59.7 96-119.4a48 48 0 0 0-92.3-18.5a4 4 0 0 1-7.4 0A48 48 0 0 0 80 44Z"></path></svg>